# xmcd
#
# Track frame offsets:
#	150
#	16842
#	37905
#	52100
#	71805
#	91375
#	111292
#	129142
#	145170
#	166130
#	180000
#	196095
#	211947
#
# Disc length: 3047 seconds
#
# Revision: 5
# Processed by: cddbd v1.5.2PL0 Copyright (c) Steve Scherf et al.
# Submitted via: audiograbber 1.83.01
#
DISCID=a30be50d
DTITLE=Ricky Martin - Almas Del Silencio
DYEAR=2003
DGENRE=Latin
TTITLE0=Jaleo
TTITLE1=Tal Vez
TTITLE2=Jamas
TTITLE3=Si Tu Te Vas
TTITLE4=Nadie Mas Que Tu
TTITLE5=Besos De Fuego
TTITLE6=Asignatura Pendiente
TTITLE7=Juramento
TTITLE8=Y Todo Queda En Nada
TTITLE9=Si Ya No Estas Aqui
TTITLE10=Raza De Mil Colores
TTITLE11=Las Almas Del Silencio
TTITLE12=Jaleo (Spanglish) (Bonus)
EXTD=
EXTT0=
EXTT1=
EXTT2=
EXTT3=
EXTT4=
EXTT5=
EXTT6=
EXTT7=
EXTT8=
EXTT9=
EXTT10=
EXTT11=
EXTT12=
PLAYORDER=
